osim_states
version=1
nRows=4
nColumns=185
inDegrees=yes

# SIMM Motion File Header:
name osim_states
datacolumns 185
datarows 4
otherdata 1
range 0.10928599 0.10992146
endheader
time	platform_rx	platform_ry	platform_rz	platform_ty	pelvis_tilt	pelvis_list	pelvis_rotation	pelvis_tx	pelvis_ty	pelvis_tz	hip_flexion_r	hip_adduction_r	hip_rotation_r	knee_angle_r	patella_r_constrained_knee_angle	ankle_angle_r	subtalar_angle_r	mtp_angle_r	hip_flexion_l	hip_adduction_l	hip_rotation_l	knee_angle_l	patella_l_constrained_knee_angle	ankle_angle_l	subtalar_angle_l	mtp_angle_l	lumbar_extension	lumbar_bending	lumbar_rotation	arm_flex_r	arm_add_r	arm_rot_r	elbow_flex_r	pro_sup_r	wrist_flex_r	wrist_dev_r	arm_flex_l	arm_add_l	arm_rot_l	elbow_flex_l	pro_sup_l	wrist_flex_l	wrist_dev_l	platform_rx_u	platform_ry_u	platform_rz_u	platform_ty_u	pelvis_tilt_u	pelvis_list_u	pelvis_rotation_u	pelvis_tx_u	pelvis_ty_u	pelvis_tz_u	hip_flexion_r_u	hip_adduction_r_u	hip_rotation_r_u	knee_angle_r_u	patella_r_constrained_knee_angle_u	ankle_angle_r_u	subtalar_angle_r_u	mtp_angle_r_u	hip_flexion_l_u	hip_adduction_l_u	hip_rotation_l_u	knee_angle_l_u	patella_l_constrained_knee_angle_u	ankle_angle_l_u	subtalar_angle_l_u	mtp_angle_l_u	lumbar_extension_u	lumbar_bending_u	lumbar_rotation_u	arm_flex_r_u	arm_add_r_u	arm_rot_r_u	elbow_flex_r_u	pro_sup_r_u	wrist_flex_r_u	wrist_dev_r_u	arm_flex_l_u	arm_add_l_u	arm_rot_l_u	elbow_flex_l_u	pro_sup_l_u	wrist_flex_l_u	wrist_dev_l_u	glut_med1_r.activation	glut_med1_r.fiber_length	glut_med2_r.activation	glut_med2_r.fiber_length	glut_med3_r.activation	glut_med3_r.fiber_length	glut_min1_r.activation	glut_min1_r.fiber_length	glut_min2_r.activation	glut_min2_r.fiber_length	glut_min3_r.activation	glut_min3_r.fiber_length	semimem_r.activation	semimem_r.fiber_length	semiten_r.activation	semiten_r.fiber_length	bifemlh_r.activation	bifemlh_r.fiber_length	bifemsh_r.activation	bifemsh_r.fiber_length	sar_r.activation	sar_r.fiber_length	add_long_r.activation	add_long_r.fiber_length	add_brev_r.activation	add_brev_r.fiber_length	add_mag1_r.activation	add_mag1_r.fiber_length	add_mag2_r.activation	add_mag2_r.fiber_length	add_mag3_r.activation	add_mag3_r.fiber_length	tfl_r.activation	tfl_r.fiber_length	pect_r.activation	pect_r.fiber_length	grac_r.activation	grac_r.fiber_length	glut_max1_r.activation	glut_max1_r.fiber_length	glut_max2_r.activation	glut_max2_r.fiber_length	glut_max3_r.activation	glut_max3_r.fiber_length	iliacus_r.activation	iliacus_r.fiber_length	psoas_r.activation	psoas_r.fiber_length	quad_fem_r.activation	quad_fem_r.fiber_length	gem_r.activation	gem_r.fiber_length	peri_r.activation	peri_r.fiber_length	rect_fem_r.activation	rect_fem_r.fiber_length	vas_med_r.activation	vas_med_r.fiber_length	vas_int_r.activation	vas_int_r.fiber_length	vas_lat_r.activation	vas_lat_r.fiber_length	med_gas_r.activation	med_gas_r.fiber_length	lat_gas_r.activation	lat_gas_r.fiber_length	soleus_r.activation	soleus_r.fiber_length	tib_post_r.activation	tib_post_r.fiber_length	flex_dig_r.activation	flex_dig_r.fiber_length	flex_hal_r.activation	flex_hal_r.fiber_length	tib_ant_r.activation	tib_ant_r.fiber_length	per_brev_r.activation	per_brev_r.fiber_length	per_long_r.activation	per_long_r.fiber_length	per_tert_r.activation	per_tert_r.fiber_length	ext_dig_r.activation	ext_dig_r.fiber_length	ext_hal_r.activation	ext_hal_r.fiber_length	ercspn_r.activation	ercspn_r.fiber_length	ercspn_l.activation	ercspn_l.fiber_length	intobl_r.activation	intobl_r.fiber_length	intobl_l.activation	intobl_l.fiber_length	extobl_r.activation	extobl_r.fiber_length	extobl_l.activation	extobl_l.fiber_length
      0.10928599	     30.00000000	      0.00000000	      0.00000000	      0.00000000	    -16.48484951	      2.86973855	      7.71295129	     -0.40379106	      0.76942295	      0.37001627	     72.38017648	     -2.03075880	     -1.48126774	    -93.56782523	    -93.56782523	     31.33684127	     22.96106015	      0.00001318	     52.13915936	     -0.00000000	     -9.99811353	   -101.98648811	   -101.98648811	      6.49999992	     -0.00000000	      0.00000000	    -11.93330988	     -3.89412703	     -1.14439620	     -0.00000000	     -8.91003344	      0.00000000	     72.06682857	     46.23690339	     -0.00000000	      4.87402477	      0.00000000	     -8.91003344	     -0.00000000	     72.06682857	     46.23690339	     -0.00000000	      4.87402477	      0.00000000	      0.00000000	      0.00000000	      0.00000000	    -26.80388072	    -58.82088869	    -95.29236415	      0.34171198	     -3.38069308	      0.34140684	    479.35104891	     86.84010812	    -14.51539093	   -712.50850754	   -712.50850754	    -33.17685209	    230.47796021	      0.00000000	     -0.00000000	     -0.00000000	     -0.00000000	     -0.00000000	      0.00000000	      0.00000000	     -0.00000000	      0.00000000	    -12.80662736	     60.47531539	    122.03374645	     -0.00000000	     -0.00000000	      0.00000000	      0.00000000	     -0.00000000	     -0.00000000	     -0.00000000	      0.00000000	     -0.00000000	     -0.00000000	      0.00000000	      0.00000000	     -0.00000000	      0.00000000	      0.02940566	      0.04923639	      0.17105939	      0.09848111	      0.41463324	      0.08711881	      0.02844342	      0.06623772	      0.03992843	      0.05924417	      0.19999309	      0.04318703	      0.09235413	      0.06463984	      0.41893288	      0.22949967	      0.36297746	      0.11903428	      0.11909899	      0.13935124	      0.01900319	      0.39232877	      0.01900598	      0.09427057	      0.02583083	      0.13097570	      0.24771895	      0.09396067	      0.24644846	      0.13008814	      0.29314579	      0.16780079	      0.01920938	      0.06995603	      0.01901206	      0.05628441	      0.01900250	      0.32630817	      0.19110979	      0.11857482	      0.22415620	      0.13765520	      0.30515635	      0.17525268	      0.01900256	      0.06683191	      0.01900504	      0.06004923	      0.56312143	      0.07197054	      0.46099380	      0.02974715	      0.56282545	      0.03075465	      0.26398032	      0.11451269	      0.64727053	      0.11382202	      0.70348242	      0.11570829	      0.66579261	      0.10868899	      0.43008086	      0.05301780	      0.43681978	      0.05693890	      0.79107946	      0.06207311	      0.01000000	      0.03669797	      0.01000000	      0.03411742	      0.01000000	      0.04539687	      0.12010896	      0.06423255	      0.01000000	      0.06546899	      0.01000000	      0.06578698	      0.01000000	      0.07499342	      0.01000000	      0.08515969	      0.01000000	      0.09093233	      0.11988043	      0.13184172	      0.09519352	      0.12628023	      0.01904197	      0.09468490	      0.02610933	      0.08262444	      0.10359927	      0.12427104	      0.09427188	      0.11355113
      0.10947889	     30.00000000	      0.00000000	      0.00000000	      0.00000000	    -16.49001913	      2.85838576	      7.69459149	     -0.40372510	      0.76877062	      0.37008210	     72.47264342	     -2.01403561	     -1.48410389	    -93.70521788	    -93.70521788	     31.33035990	     23.00553149	      0.00001318	     52.13915936	     -0.00000000	     -9.99811353	   -101.98648811	   -101.98648811	      6.49999992	     -0.00000000	      0.00000000	    -11.93577977	     -3.88245179	     -1.12087624	     -0.00000000	     -8.91003344	      0.00000000	     72.06682857	     46.23690339	     -0.00000000	      4.87402477	      0.00000000	     -8.91003344	     -0.00000000	     72.06682857	     46.23690339	     -0.00000000	      4.87402477	      0.00000000	      0.00000000	      0.00000000	      0.00000000	    -26.79581564	    -58.88716741	    -95.06564056	      0.34209537	     -3.38274776	      0.34109620	    479.36498784	     86.54897209	    -14.89023840	   -712.00601123	   -712.00601123	    -34.02317161	    230.60978735	      0.00000000	     -0.00000000	     -0.00000000	     -0.00000000	     -0.00000000	      0.00000000	      0.00000000	     -0.00000000	      0.00000000	    -12.80158669	     60.57600745	    121.82576313	     -0.00000000	     -0.00000000	      0.00000000	      0.00000000	     -0.00000000	     -0.00000000	     -0.00000000	      0.00000000	     -0.00000000	     -0.00000000	      0.00000000	      0.00000000	     -0.00000000	      0.00000000	      0.02935482	      0.04922807	      0.17082311	      0.09849853	      0.41456517	      0.08715377	      0.02839522	      0.06622769	      0.03984774	      0.05924190	      0.19969891	      0.04319661	      0.09210100	      0.06462846	      0.41881497	      0.22949447	      0.36340067	      0.11906319	      0.11874266	      0.13930346	      0.01898027	      0.39215804	      0.01898306	      0.09425652	      0.02605406	      0.13098468	      0.24799337	      0.09400869	      0.24656068	      0.13015426	      0.29309140	      0.16787747	      0.01918592	      0.06990391	      0.01898912	      0.05626595	      0.01897958	      0.32628602	      0.19088707	      0.11861261	      0.22392748	      0.13770536	      0.30495987	      0.17532432	      0.01897964	      0.06677988	      0.01898212	      0.05999762	      0.56377097	      0.07202514	      0.46094549	      0.02976772	      0.56252809	      0.03078038	      0.26393238	      0.11451328	      0.64795380	      0.11388666	      0.70414919	      0.11577020	      0.66649803	      0.10875171	      0.42963702	      0.05298695	      0.43637768	      0.05690755	      0.79126249	      0.06207592	      0.01000000	      0.03669104	      0.01000000	      0.03410669	      0.01000000	      0.04538965	      0.11978427	      0.06416350	      0.01000000	      0.06548833	      0.01000000	      0.06580257	      0.01000000	      0.07500883	      0.01000000	      0.08515645	      0.01000000	      0.09087352	      0.11981914	      0.13183249	      0.09535015	      0.12629429	      0.01901895	      0.09467957	      0.02606750	      0.08262470	      0.10337984	      0.12424137	      0.09431339	      0.11357568
      0.10967178	     30.00000000	      0.00000000	      0.00000000	      0.00000000	    -16.49518720	      2.84702017	      7.67627547	     -0.40365908	      0.76811790	      0.37014786	     72.56511318	     -1.99736874	     -1.48701227	    -93.84251362	    -93.84251362	     31.32371534	     23.05002824	      0.00001318	     52.13915936	     -0.00000000	     -9.99811353	   -101.98648811	   -101.98648811	      6.49999992	     -0.00000000	      0.00000000	    -11.93824867	     -3.87075710	     -1.09739646	     -0.00000000	     -8.91003344	      0.00000000	     72.06682857	     46.23690339	     -0.00000000	      4.87402477	      0.00000000	     -8.91003344	     -0.00000000	     72.06682857	     46.23690339	     -0.00000000	      4.87402477	      0.00000000	      0.00000000	      0.00000000	      0.00000000	    -26.78776905	    -58.95353462	    -94.83842501	      0.34247927	     -3.38480255	      0.34078542	    479.38022201	     86.25617562	    -15.26431789	   -711.50383304	   -711.50383304	    -34.86890741	    230.74133792	      0.00000000	     -0.00000000	     -0.00000000	     -0.00000000	     -0.00000000	      0.00000000	      0.00000000	     -0.00000000	      0.00000000	    -12.79646249	     60.67685451	    121.61717795	     -0.00000000	     -0.00000000	      0.00000000	      0.00000000	     -0.00000000	     -0.00000000	     -0.00000000	      0.00000000	     -0.00000000	     -0.00000000	      0.00000000	      0.00000000	     -0.00000000	      0.00000000	      0.02930411	      0.04921972	      0.17058706	      0.09851589	      0.41449667	      0.08718867	      0.02834715	      0.06621766	      0.03976729	      0.05923962	      0.19940436	      0.04320614	      0.09184880	      0.06461719	      0.41869756	      0.22948944	      0.36382503	      0.11909221	      0.11838777	      0.13925588	      0.01895741	      0.39198733	      0.01896019	      0.09424264	      0.02628088	      0.13099376	      0.24826780	      0.09405676	      0.24667373	      0.13022041	      0.29303826	      0.16795411	      0.01916253	      0.06985179	      0.01896624	      0.05624760	      0.01895673	      0.32626415	      0.19066403	      0.11865031	      0.22369843	      0.13775542	      0.30476446	      0.17539586	      0.01895679	      0.06672786	      0.01895926	      0.05994602	      0.56417712	      0.07207788	      0.46089838	      0.02978826	      0.56223161	      0.03080607	      0.26388441	      0.11451383	      0.64863574	      0.11395117	      0.70481515	      0.11583201	      0.66720212	      0.10881431	      0.42919229	      0.05295609	      0.43593483	      0.05687620	      0.79144419	      0.06207868	      0.01000000	      0.03668408	      0.01000000	      0.03409592	      0.01000000	      0.04538238	      0.11945958	      0.06409451	      0.01000000	      0.06550767	      0.01000000	      0.06581816	      0.01000000	      0.07502436	      0.01000000	      0.08515360	      0.01000000	      0.09081471	      0.11975776	      0.13182326	      0.09550671	      0.12630835	      0.01899599	      0.09467418	      0.02602578	      0.08262499	      0.10316028	      0.12421170	      0.09435456	      0.11360024
      0.10992146	     30.00000000	      0.00000000	      0.00000000	      0.00000000	    -16.50187409	      2.83229031	      7.65263365	     -0.40357351	      0.76727247	      0.37023290	     72.68480423	     -1.97588045	     -1.49088369	    -94.02007596	    -94.02007596	     31.31487294	     23.10765938	      0.00001318	     52.13915936	     -0.00000000	     -9.99811353	   -101.98648811	   -101.98648811	      6.49999992	     -0.00000000	      0.00000000	    -11.94144276	     -3.85559140	     -1.06706571	     -0.00000000	     -8.91003344	      0.00000000	     72.06682857	     46.23690339	     -0.00000000	      4.87402477	      0.00000000	     -8.91003344	     -0.00000000	     72.06682857	     46.23690339	     -0.00000000	      4.87402477	      0.00000000	      0.00000000	      0.00000000	      0.00000000	    -26.77738120	    -59.03956771	    -94.54359940	      0.34297692	     -3.38746229	      0.34038293	    479.40185349	     85.87473653	    -15.74736334	   -710.85431173	   -710.85431173	    -35.96267045	    230.91115330	      0.00000000	     -0.00000000	     -0.00000000	     -0.00000000	     -0.00000000	      0.00000000	      0.00000000	     -0.00000000	      0.00000000	    -12.78970436	     60.80761486	    121.34630398	     -0.00000000	     -0.00000000	      0.00000000	      0.00000000	     -0.00000000	     -0.00000000	     -0.00000000	      0.00000000	     -0.00000000	     -0.00000000	      0.00000000	      0.00000000	     -0.00000000	      0.00000000	      0.02923868	      0.04920885	      0.17028188	      0.09853827	      0.41440741	      0.08723373	      0.02828513	      0.06620468	      0.03966350	      0.05923663	      0.19902260	      0.04321844	      0.09152375	      0.06460276	      0.41854633	      0.22948318	      0.36437600	      0.11912995	      0.11793056	      0.13919459	      0.01892792	      0.39176640	      0.01893069	      0.09422496	      0.02657968	      0.13100564	      0.24861805	      0.09411901	      0.24682130	      0.13030610	      0.29297132	      0.16805322	      0.01913234	      0.06978433	      0.01893672	      0.05622402	      0.01892724	      0.32623626	      0.19037487	      0.11869896	      0.22340150	      0.13782007	      0.30451314	      0.17548832	      0.01892729	      0.06666053	      0.01892976	      0.05987924	      0.56488380	      0.07214748	      0.46083914	      0.02981481	      0.56184915	      0.03083925	      0.26382229	      0.11451448	      0.64951641	      0.11403449	      0.70567590	      0.11591186	      0.66811144	      0.10889516	      0.42861535	      0.05291612	      0.43536055	      0.05683562	      0.79167738	      0.06208219	      0.01000000	      0.03667505	      0.01000000	      0.03408192	      0.01000000	      0.04537287	      0.11903934	      0.06400528	      0.01000000	      0.06553271	      0.01000000	      0.06583833	      0.01000000	      0.07504464	      0.01000000	      0.08515045	      0.01000000	      0.09073859	      0.11967818	      0.13181129	      0.09570924	      0.12632657	      0.01896637	      0.09466713	      0.02597196	      0.08262543	      0.10287590	      0.12417334	      0.09440734	      0.11363203
